<svg xmlns="http://www.w3.org/2000/svg" viewBox="0 0 202.27 294.78"><defs><style>.cls-1{fill:red;}.cls-2{fill:#ffce00;}</style></defs><g id="Layer_2" data-name="Layer 2"><g id="Layer_1-2" data-name="Layer 1"><path class="cls-1" d="M177.08,214.83a80,80,0,0,1-80,79.95c-44.16,0-93.74-38-79.95-79.95,11-33.51,49-69.77,93.16-69.77S177.08,170.67,177.08,214.83Z"/><path d="M13.8,130.62A47.09,47.09,0,0,1,13.8,64c18.39-18.39,54.87-23.22,66.61,0,9.37,18.54,8.65,49.48-9.75,67.87S32.19,149,13.8,130.62Z"/><path class="cls-2" d="M129.75,82.27a47.09,47.09,0,0,1,0-66.61c18.39-18.4,54.87-23.22,66.61,0,9.37,18.54,8.65,49.47-9.75,67.87S148.14,100.66,129.75,82.27Z"/></g></g></svg>