<svg xmlns="http://www.w3.org/2000/svg" viewBox="0 0 135.5 191.04"><defs><style>.cls-1{fill:#fff;}</style></defs><g id="Layer_2" data-name="Layer 2"><g id="Layer_1-2" data-name="Layer 1"><g id="_9rTQ1k" data-name="9rTQ1k"><path class="cls-1" d="M56.55,26.09H77V8.92H65.19V7.43H77V0H56.56V16.8H68.42v1.5H56.55ZM101.72,0H81.24V16.8H93.09v1.48H81.23v7.81H101.7V8.9H89.84V7.41h11.88ZM52.39,25.71V17.14H40.53V8.55H52.4V0H31.92V25.71Z"/><path class="cls-1" d="M0,37.6H135.5c-.14,1.59-.26,3.13-.4,4.66q-1,11.54-2.06,23.06-1.17,13-2.33,26-1,11.31-2,22.61-1.15,13-2.33,26l-2.16,24.25c-.32,3.61-.66,7.21-.95,10.82a1,1,0,0,1-.92,1.09Q96,183.41,69.76,190.74a7.43,7.43,0,0,1-4.28,0q-26.16-7.32-52.36-14.54a1,1,0,0,1-.91-1.1q-.75-8.7-1.54-17.39-1.1-12.3-2.2-24.62-1-11.3-2-22.6Q5.38,98.22,4.28,86q-1-11.26-2-22.53L.09,39C.05,38.54,0,38.1,0,37.6ZM25.2,65.89l1.55,17H91.58c-.52,5.85-1,11.58-1.55,17.38H28.29c0,.33,0,.57.05.82q.66,7.53,1.34,15.06c.11,1.16-.05,1.05,1.1,1.05H88.51a2.31,2.31,0,0,1,0,.4c-.63,7-1.28,14.07-1.89,21.1,0,.47-.27.57-.63.66-6,1.6-11.9,3.21-17.86,4.8a2.19,2.19,0,0,1-1.08,0l-17.71-4.76a.76.76,0,0,1-.67-.8c-.29-3.5-.61-7-.92-10.51-.07-.79-.16-1.57-.24-2.33h-17c0,.42,0,.79.07,1.16q1.09,12.34,2.19,24.69a.88.88,0,0,0,.74.92q16.82,4.64,33.61,9.3a1.77,1.77,0,0,0,.94,0q16.89-4.65,33.76-9.33a.73.73,0,0,0,.65-.75q1.16-13.12,2.34-26.25,1.25-13.83,2.47-27.67,1.3-14.62,2.62-29.24c.08-.88.14-1.76.21-2.67Z"/><path class="cls-1" d="M56.55,26.09V18.3H68.42V16.8H56.56V0H77v7.4H65.19V8.92H77V26.09Z"/><path class="cls-1" d="M101.72,0v7.4H89.84V8.9H101.7V26.09H81.23V18.28H93.09V16.8H81.24V0Z"/><path class="cls-1" d="M52.39,25.71H31.92V0H52.4V8.55H40.53v8.59H52.39Z"/></g></g></g></svg>