<svg xmlns="http://www.w3.org/2000/svg" viewBox="0 0 135.6 191.12"><defs><style>.cls-1{fill:#fff;}</style></defs><g id="Layer_2" data-name="Layer 2"><g id="Layer_1-2" data-name="Layer 1"><g id="I74Edj"><path class="cls-1" d="M0,37.35H135.6c-4.12,46.18-8.23,92.28-12.36,138.6L112,179.07Q90.69,185,69.32,190.9a6.15,6.15,0,0,1-3.13,0c-17.5-4.8-35-9.68-52.48-14.51a1.93,1.93,0,0,1-1.65-2q-2.14-24.74-4.4-49.45Q5.5,101,3.34,77.1,1.66,58.44,0,39.77C0,39,0,38.29,0,37.35ZM43.68,82.68h65.15c.52-5.67,1-11.23,1.53-16.89h-85c0,.52,0,.86,0,1.19Q27.42,90.5,29.54,114c.26,2.93-.5,3,3.28,3l53.33.19c.71,0,1.43.08,2.15.12a7.2,7.2,0,0,1,.1,1c-.56,6.6-1.1,13.19-1.75,19.78-.05.48-.85,1.13-1.42,1.29q-8.26,2.34-16.6,4.49a5.24,5.24,0,0,1-2.55,0c-5.22-1.36-10.42-2.85-15.65-4.19a2.12,2.12,0,0,1-1.91-2.29c-.27-4.08-.73-8.16-1.12-12.19H30.51c.77,8.52,1.57,16.86,2.24,25.2a2.17,2.17,0,0,0,1.91,2.31c10.75,2.92,21.47,5.94,32.22,8.89a4.31,4.31,0,0,0,2.14,0c10.6-2.9,21.19-5.85,31.8-8.74a2.22,2.22,0,0,0,2-2.28c1.25-14.4,2.59-28.79,3.89-43.18.22-2.39.36-4.78.55-7.38h-2.91q-26.86.06-53.74.11c-1.72,0-4,.42-5-.47s-.66-3.13-.82-4.8C44.36,90.89,44,86.93,43.68,82.68Z"/><path class="cls-1" d="M98,.07V25.82H89.42V14.17l-.49-.2c-1.82,2.76-3.63,5.53-5.57,8.48L77.84,14l-.38,0V25.83H69V.08c2.77,0,5.45-.06,8.13.05.51,0,1.14.64,1.46,1.14,1.6,2.48,3.11,5,4.83,7.83,1.5-2.48,2.94-4.67,4.19-7C88.47.61,89.43-.15,91.29,0,93.42.23,95.59.07,98,.07Z"/><path class="cls-1" d="M21,17.47v8.31H12.37V.2H20.9V8.44h7.86V.18h8.48V25.8H28.89V17.47Z"/><path class="cls-1" d="M57.62,25.87H48.77V8.65h-7.4V.18H65V8.54H57.62Z"/><path class="cls-1" d="M102.37.17H111V17.32h11.89v8.5H102.37Z"/></g></g></g></svg>