<svg xmlns="http://www.w3.org/2000/svg" viewBox="0 0 135.2 191.01"><defs><style>.cls-1{fill:#fff;}</style></defs><g id="Layer_2" data-name="Layer 2"><g id="Layer_1-2" data-name="Layer 1"><g id="IAwimZ"><path class="cls-1" d="M67.67,37.27h65.19c.4,0,.8,0,1.2,0,.95,0,1.16.21,1.14,1.19,0,1.28-.15,2.55-.25,3.82-.2,2.47-.41,4.93-.62,7.4-.25,2.83-.53,5.65-.78,8.48-.18,2.11-.34,4.21-.53,6.32-.16,1.88-.34,3.77-.52,5.66-.18,2.06-.37,4.13-.55,6.2-.26,2.86-.5,5.73-.75,8.6-.18,2.14-.38,4.28-.57,6.41-.27,3-.55,6-.81,8.93-.25,2.79-.48,5.59-.73,8.38s-.55,5.8-.81,8.7-.47,5.73-.73,8.6c-.23,2.69-.49,5.37-.73,8.05-.19,2-.37,4-.55,6-.28,3-.56,6-.82,9-.25,2.83-.49,5.66-.74,8.49-.24,2.65-.48,5.29-.73,7.94s-.6,5.43-.75,8.16a2.34,2.34,0,0,1-1.8,2.38c-3.76,1.28-7.57,2.39-11.4,3.46-6.81,1.9-13.61,3.85-20.43,5.72-6,1.64-12,3.21-17.95,4.8-1.06.29-2.12.55-3.17.85a4.25,4.25,0,0,1-2.37,0c-4.57-1.26-9.15-2.48-13.71-3.74q-10.6-2.93-21.18-5.88c-5.94-1.65-11.87-3.33-17.79-5-1.25-.36-1.29-.46-1.4-1.74-.34-3.66-.7-7.32-1-11-.25-2.83-.47-5.67-.72-8.5-.33-3.62-.69-7.25-1-10.87-.26-2.83-.48-5.66-.74-8.49S8,130,7.74,127.16c-.18-1.92-.34-3.84-.51-5.77-.19-2.17-.4-4.35-.59-6.52s-.34-4.07-.52-6.1c-.23-2.65-.49-5.3-.73-7.94l-.57-6.31c-.2-2.25-.39-4.5-.59-6.75-.17-2-.33-3.92-.51-5.88-.26-3-.54-6-.81-9l-.72-8.27c-.19-2.1-.39-4.21-.57-6.31s-.34-4-.52-6C.91,50,.7,47.79.52,45.55S.17,41.26,0,39.12a6.3,6.3,0,0,1,0-.87c.08-.77.23-.92,1-1,.36,0,.73,0,1.09,0Zm-8.34,79.79h28c.87,0,1,.11.87,1-.17,1.74-.37,3.47-.53,5.21-.28,2.94-.54,5.88-.8,8.82-.17,1.92-.4,3.84-.66,5.75a1.42,1.42,0,0,1-1.15,1.29c-.8.23-1.6.5-2.4.73q-6.93,2-14,3.69a5.85,5.85,0,0,1-2.91,0c-1.58-.43-3.17-.82-4.75-1.24q-5.65-1.53-11.29-3.08c-1.16-.32-1.26-.46-1.37-1.64-.1-1-.16-2-.25-3.05q-.33-4-.69-8c-.06-.7-.24-.84-1-.9-.22,0-.44,0-.66,0H31.92c-.26,0-.51,0-.76,0a.66.66,0,0,0-.7.68c0,.29,0,.59,0,.88.06,3.06.48,6.09.72,9.14.21,2.76.5,5.51.81,8.26.24,2.14.57,4.26.83,6.4A1.49,1.49,0,0,0,34,152.38c2.17.62,4.33,1.29,6.5,1.9q7,2,14.11,3.95l11,3a5.16,5.16,0,0,0,2.7.11c3.66-1,7.33-1.93,11-2.93,4.46-1.23,8.92-2.49,13.37-3.75,2.77-.79,5.54-1.59,8.27-2.5.68-.22,1.16-.53,1.24-1.32.27-2.76.62-5.51.85-8.26.31-3.59.69-7.18,1-10.77.34-4.4.82-8.78,1.23-13.17q.66-7.07,1.31-14.14c.09-1.05.21-2.1.24-3.15,0-.87-.14-1-1-1.12a25.41,25.41,0,0,0-3.27-.21H50.77c-1.54,0-1.93.27-1.72-2,.32-3.51.68-7,1-10.54.39-4,.76-8,1.16-12,.21-2.11.33-2.21,2.45-2.25,1.28,0,2.56,0,3.83-.07,3.63-.2,7.26-.23,10.9-.19,2.74,0,5.46.25,8.2.25,2,0,4.07.2,6.11.29A30.2,30.2,0,0,1,87,74c.81.16,1,.28,1.15,1.09.12.6.2,1.22.27,1.83q.57,4.95.94,9.9c.09,1.2.26,2.39.38,3.59a.92.92,0,0,0,.9.91,17.9,17.9,0,0,0,2.06.18h12.91a5,5,0,0,0,.55,0c.67,0,.77-.15.72-.79-.2-2.18-.4-4.35-.61-6.53-.18-2-.38-3.91-.55-5.87-.25-2.87-.48-5.74-.74-8.6s-.54-6-.81-9c-.14-1.52-.28-3-.44-4.57-.07-.74-.19-.83-1-.88h-.44c-11.08-.1-22.16,0-33.24-.16q-15.52-.24-31,.17c-.3,0-.59,0-.88,0-.94.09-1.11.24-1.27,1.17-.07.39-.12.79-.16,1.19-.24,2.61-.48,5.22-.74,7.83s-.53,5.22-.77,7.83c-.26,2.79-.47,5.58-.73,8.38-.33,3.66-.7,7.32-1,11-.26,3-.46,6-.72,9-.4,4.53-.83,9.06-1.24,13.59-.15,1.73-.06,1.82,1.63,1.82Z"/><path class="cls-1" d="M81.13,7.47c1.1,1.2,2.12,2.33,3.15,3.44,2.48,2.68,4.94,5.36,7.43,8a2.21,2.21,0,0,1,.66,1.66c0,1.27,0,2.55,0,3.83s-.1,1.31-1.3,1.31H69.75l-1,0c-.47,0-.77-.21-.77-.71,0-1.89,0-3.79,0-5.68,0-.45.28-.65.7-.68s.65,0,1,0c2.62,0,5.25,0,7.87,0A2.06,2.06,0,0,0,79,18.3a6.56,6.56,0,0,0-1.25-1.61c-2.49-2.76-5-5.51-7.52-8.22C68,6.11,68,6.14,68,2.93c0-.69,0-1.38,0-2.07s.16-.79.87-.85c.21,0,.43,0,.65,0H90.93c.82,0,1,.14,1,1,0,1.64,0,3.28,0,4.92,0,1.06-.12,1.17-1.21,1.2l-8.3.21A3.09,3.09,0,0,0,81.13,7.47Z"/><path class="cls-1" d="M64.13,12.89V23.94c0,.33,0,.65,0,1a.72.72,0,0,1-.81.81H44.49c-.25,0-.51,0-.76,0-.68-.06-.84-.17-.85-.87q0-3.55,0-7.11c0-.78.18-.89,1.16-.89h9.29c1.81,0,1.81.18,1.81-1.77q0-6.74,0-13.46C55.14,0,55.14,0,56.79,0h6C64,0,64.12.08,64.13,1.3Z"/></g></g></g></svg>